<svg width="41" height="40" viewBox="0 0 41 40" fill="none" xmlns="http://www.w3.org/2000/svg">
<rect x="0.506836" width="40.2778" height="40" rx="20" fill="#FBFF47" fill-opacity="0.7"/>
<path fill-rule="evenodd" clip-rule="evenodd" d="M26.6876 16C26.6876 19.3137 23.9827 22 20.646 22C17.3092 22 14.6043 19.3137 14.6043 16C14.6043 12.6863 17.3092 10 20.646 10C23.9827 10 26.6876 12.6863 26.6876 16ZM24.6737 16C24.6737 18.2091 22.8704 20 20.646 20C18.4215 20 16.6182 18.2091 16.6182 16C16.6182 13.7909 18.4215 12 20.646 12C22.8704 12 24.6737 13.7909 24.6737 16Z" fill="#21005D"/>
<path d="M20.646 25C14.1266 25 8.57196 28.8284 6.45605 34.192C6.9715 34.7004 7.51449 35.1812 8.0826 35.6321C9.65821 30.7077 14.601 27 20.646 27C26.6909 27 31.6337 30.7077 33.2093 35.6321C33.7774 35.1812 34.3204 34.7004 34.8359 34.1921C32.72 28.8284 27.1653 25 20.646 25Z" fill="#21005D"/>
</svg>
