<svg width="41" height="40" viewBox="0 0 41 40" fill="none" xmlns="http://www.w3.org/2000/svg">
<rect x="0.507812" width="40.2778" height="40" rx="20" fill="#FBFF47" fill-opacity="0.7"/>
<path fill-rule="evenodd" clip-rule="evenodd" d="M26.6886 16C26.6886 19.3137 23.9837 22 20.6469 22C17.3102 22 14.6053 19.3137 14.6053 16C14.6053 12.6863 17.3102 10 20.6469 10C23.9837 10 26.6886 12.6863 26.6886 16ZM24.6747 16C24.6747 18.2091 22.8714 20 20.6469 20C18.4225 20 16.6192 18.2091 16.6192 16C16.6192 13.7909 18.4225 12 20.6469 12C22.8714 12 24.6747 13.7909 24.6747 16Z" fill="#21005D"/>
<path d="M20.6469 25C14.1276 25 8.57294 28.8284 6.45703 34.192C6.97248 34.7004 7.51547 35.1812 8.08358 35.6321C9.65919 30.7077 14.602 27 20.6469 27C26.6919 27 31.6347 30.7077 33.2103 35.6321C33.7784 35.1812 34.3214 34.7004 34.8368 34.1921C32.7209 28.8284 27.1663 25 20.6469 25Z" fill="#21005D"/>
</svg>
