<svg width="32" height="27" viewBox="0 0 32 27" fill="none" xmlns="http://www.w3.org/2000/svg">
<g clip-path="url(#clip0_34_533)">
<path d="M30.5946 10.2112C30.8283 10.0504 31.1757 10.2008 31.1757 10.455V21.0645C31.1757 22.4393 29.8878 23.5547 28.3004 23.5547H3.38116C1.79375 23.5547 0.505859 22.4393 0.505859 21.0645V10.4602C0.505859 10.2008 0.847301 10.0555 1.08691 10.2164C2.42871 11.1191 4.2078 12.2656 10.3178 16.1099C11.5817 16.9089 13.7143 18.5898 15.8408 18.5794C17.9793 18.595 20.1537 16.8777 21.3697 16.1099C27.4797 12.2656 29.2528 11.1139 30.5946 10.2112ZM15.8408 16.9141C17.2305 16.9348 19.2312 15.3992 20.2376 14.7662C28.1866 9.7702 28.7916 9.33441 30.6246 8.08929C30.972 7.85583 31.1757 7.49268 31.1757 7.10876V6.12305C31.1757 4.74823 29.8878 3.63281 28.3004 3.63281H3.38116C1.79375 3.63281 0.505859 4.74823 0.505859 6.12305V7.10876C0.505859 7.49268 0.709526 7.85065 1.05696 8.08929C2.88996 9.32922 3.49497 9.7702 11.444 14.7662C12.4503 15.3992 14.451 16.9348 15.8408 16.9141Z" fill="white"/>
</g>
<defs>
<clipPath id="clip0_34_533">
<rect width="30.6698" height="26.5625" fill="white" transform="translate(0.505859 0.3125)"/>
</clipPath>
</defs>
</svg>
