<svg width="31" height="27" viewBox="0 0 31 27" fill="none" xmlns="http://www.w3.org/2000/svg">
<g clip-path="url(#clip0_89_637)">
<path d="M29.9145 10.2112C30.1465 10.0504 30.4915 10.2008 30.4915 10.455V21.0645C30.4915 22.4393 29.2125 23.5547 27.6361 23.5547H2.88867C1.31221 23.5547 0.0332031 22.4393 0.0332031 21.0645V10.4602C0.0332031 10.2008 0.37229 10.0555 0.610245 10.2164C1.9428 11.1191 3.70962 12.2656 9.77748 16.1099C11.0327 16.9089 13.1505 18.5898 15.2624 18.5794C17.3861 18.595 19.5456 16.8777 20.7532 16.1099C26.8211 12.2656 28.5819 11.1139 29.9145 10.2112ZM15.2624 16.9141C16.6425 16.9348 18.6294 15.3992 19.6288 14.7662C27.523 9.7702 28.1239 9.33441 29.9442 8.08929C30.2893 7.85583 30.4915 7.49268 30.4915 7.10876V6.12305C30.4915 4.74823 29.2125 3.63281 27.6361 3.63281H2.88867C1.31221 3.63281 0.0332031 4.74823 0.0332031 6.12305V7.10876C0.0332031 7.49268 0.235465 7.85065 0.580501 8.08929C2.40086 9.32922 3.0017 9.7702 10.8959 14.7662C11.8953 15.3992 13.8822 16.9348 15.2624 16.9141Z" fill="white"/>
</g>
<defs>
<clipPath id="clip0_89_637">
<rect width="30.4583" height="26.5625" fill="white" transform="translate(0.0332031 0.3125)"/>
</clipPath>
</defs>
</svg>
