<svg width="32" height="27" viewBox="0 0 32 27" fill="none" xmlns="http://www.w3.org/2000/svg">
<g clip-path="url(#clip0_89_537)">
<path d="M30.4701 10.2112C30.7032 10.0504 31.0497 10.2008 31.0497 10.455V21.0645C31.0497 22.4393 29.7651 23.5547 28.1818 23.5547H3.32686C1.74356 23.5547 0.458984 22.4393 0.458984 21.0645V10.4602C0.458984 10.2008 0.799545 10.0555 1.03853 10.2164C2.37688 11.1191 4.15138 12.2656 10.2456 16.1099C11.5063 16.9089 13.6333 18.5898 15.7543 18.5794C17.8873 18.595 20.0562 16.8777 21.269 16.1099C27.3633 12.2656 29.1318 11.1139 30.4701 10.2112ZM15.7543 16.9141C17.1405 16.9348 19.136 15.3992 20.1398 14.7662C28.0683 9.7702 28.6717 9.33441 30.5 8.08929C30.8466 7.85583 31.0497 7.49268 31.0497 7.10876V6.12305C31.0497 4.74823 29.7651 3.63281 28.1818 3.63281H3.32686C1.74356 3.63281 0.458984 4.74823 0.458984 6.12305V7.10876C0.458984 7.49268 0.662126 7.85065 1.00866 8.08929C2.83693 9.32922 3.44038 9.7702 11.3689 14.7662C12.3726 15.3992 14.3682 16.9348 15.7543 16.9141Z" fill="white"/>
</g>
<defs>
<clipPath id="clip0_89_537">
<rect width="30.5907" height="26.5625" fill="white" transform="translate(0.458984 0.3125)"/>
</clipPath>
</defs>
</svg>
