<svg width="21" height="25" viewBox="0 0 21 25" fill="none" xmlns="http://www.w3.org/2000/svg">
<g clip-path="url(#clip0_89_896)">
<path d="M19.8231 17.6661L15.4799 15.3223C15.2944 15.2227 15.0882 15.2018 14.8923 15.2625C14.6965 15.3233 14.5217 15.4625 14.3941 15.6592L12.4707 18.6182C9.45211 16.8261 7.02283 13.7673 5.59959 9.96635L7.94955 7.54448C8.10609 7.38417 8.21689 7.164 8.26517 6.91731C8.31345 6.67062 8.29658 6.41083 8.21712 6.17729L6.35577 0.708542C6.26856 0.456788 6.11432 0.25124 5.91965 0.12734C5.72498 0.00344002 5.50207 -0.0310452 5.28937 0.0298307L1.25643 1.20171C1.05136 1.26133 0.868395 1.40672 0.737398 1.61415C0.606402 1.82157 0.535109 2.07878 0.535156 2.3438C0.535156 14.8682 8.59715 25 18.5283 25C18.7388 25.0002 18.9432 24.9105 19.108 24.7455C19.2728 24.5806 19.3883 24.3501 19.4357 24.0918L20.3663 19.0137C20.4144 18.7446 20.3864 18.4628 20.2873 18.2168C20.1881 17.9708 20.024 17.7761 19.8231 17.6661Z" fill="white"/>
</g>
<defs>
<clipPath id="clip0_89_896">
<rect width="19.8545" height="25" fill="white" transform="translate(0.535156)"/>
</clipPath>
</defs>
</svg>
