<svg width="21" height="25" viewBox="0 0 21 25" fill="none" xmlns="http://www.w3.org/2000/svg">
<g clip-path="url(#clip0_34_544)">
<path d="M19.8221 17.6661L15.4789 15.3223C15.2934 15.2227 15.0872 15.2018 14.8914 15.2625C14.6955 15.3233 14.5207 15.4625 14.3931 15.6592L12.4697 18.6182C9.45113 16.8261 7.02186 13.7673 5.59862 9.96635L7.94858 7.54448C8.10512 7.38417 8.21591 7.164 8.26419 6.91731C8.31247 6.67062 8.29561 6.41083 8.21615 6.17729L6.35479 0.708542C6.26759 0.456788 6.11335 0.25124 5.91867 0.12734C5.724 0.00344002 5.50109 -0.0310452 5.28839 0.0298307L1.25545 1.20171C1.05038 1.26133 0.867419 1.40672 0.736422 1.61415C0.605425 1.82157 0.534132 2.07878 0.53418 2.3438C0.53418 14.8682 8.59617 25 18.5273 25C18.7378 25.0002 18.9422 24.9105 19.107 24.7455C19.2718 24.5806 19.3873 24.3501 19.4347 24.0918L20.3654 19.0137C20.4134 18.7446 20.3854 18.4628 20.2863 18.2168C20.1871 17.9708 20.023 17.7761 19.8221 17.6661Z" fill="white"/>
</g>
<defs>
<clipPath id="clip0_34_544">
<rect width="19.8545" height="25" fill="white" transform="translate(0.53418)"/>
</clipPath>
</defs>
</svg>
