<svg width="21" height="25" viewBox="0 0 21 25" fill="none" xmlns="http://www.w3.org/2000/svg">
<g clip-path="url(#clip0_89_952)">
<path d="M19.8221 17.666L15.4789 15.3222C15.2934 15.2227 15.0872 15.2017 14.8914 15.2625C14.6955 15.3232 14.5207 15.4625 14.3931 15.6592L12.4697 18.6181C9.45113 16.8261 7.02186 13.7672 5.59862 9.96629L7.94858 7.54442C8.10512 7.3841 8.21591 7.16394 8.26419 6.91725C8.31247 6.67055 8.29561 6.41077 8.21615 6.17723L6.35479 0.708481C6.26759 0.456727 6.11335 0.251179 5.91867 0.127279C5.724 0.00337898 5.50109 -0.0311062 5.28839 0.0297697L1.25545 1.20164C1.05038 1.26127 0.867419 1.40666 0.736422 1.61409C0.605425 1.82151 0.534132 2.07872 0.53418 2.34373C0.53418 14.8681 8.59617 25 18.5273 25C18.7378 25.0002 18.9422 24.9104 19.107 24.7455C19.2718 24.5805 19.3873 24.3501 19.4347 24.0918L20.3654 19.0137C20.4134 18.7445 20.3854 18.4627 20.2863 18.2168C20.1871 17.9708 20.023 17.776 19.8221 17.666Z" fill="white"/>
</g>
<defs>
<clipPath id="clip0_89_952">
<rect width="19.8545" height="25" fill="white" transform="translate(0.53418)"/>
</clipPath>
</defs>
</svg>
