<svg width="21" height="25" viewBox="0 0 21 25" fill="none" xmlns="http://www.w3.org/2000/svg">
<g clip-path="url(#clip0_89_548)">
<path d="M19.7176 17.6661L15.3857 15.3223C15.2006 15.2227 14.995 15.2018 14.7996 15.2625C14.6043 15.3233 14.4299 15.4625 14.3027 15.6592L12.3843 18.6182C9.37345 16.8261 6.95043 13.7673 5.53087 9.96635L7.87476 7.54448C8.0309 7.38417 8.14141 7.164 8.18956 6.91731C8.23772 6.67062 8.2209 6.41083 8.14164 6.17729L6.28509 0.708542C6.19811 0.456788 6.04427 0.25124 5.8501 0.12734C5.65593 0.00344002 5.43359 -0.0310452 5.22144 0.0298307L1.19891 1.20171C0.994365 1.26133 0.811871 1.40672 0.681213 1.61415C0.550554 1.82157 0.479445 2.07878 0.479492 2.3438C0.479492 14.8682 8.52069 25 18.4262 25C18.6362 25.0002 18.84 24.9105 19.0044 24.7455C19.1688 24.5806 19.284 24.3501 19.3312 24.0918L20.2595 19.0137C20.3074 18.7446 20.2795 18.4628 20.1806 18.2168C20.0817 17.9708 19.918 17.7761 19.7176 17.6661Z" fill="white"/>
</g>
<defs>
<clipPath id="clip0_89_548">
<rect width="19.8032" height="25" fill="white" transform="translate(0.479492)"/>
</clipPath>
</defs>
</svg>
