<svg width="20" height="25" viewBox="0 0 20 25" fill="none" xmlns="http://www.w3.org/2000/svg">
<g clip-path="url(#clip0_89_648)">
<path d="M19.1959 17.6661L14.8827 15.3223C14.6984 15.2227 14.4937 15.2018 14.2992 15.2625C14.1047 15.3233 13.9311 15.4625 13.8044 15.6592L11.8943 18.6182C8.89647 16.8261 6.48395 13.7673 5.07053 9.96635L7.40428 7.54448C7.55974 7.38417 7.66977 7.164 7.71772 6.91731C7.76566 6.67062 7.74891 6.41083 7.67 6.17729L5.82149 0.708542C5.73488 0.456788 5.58171 0.25124 5.38837 0.12734C5.19504 0.00344002 4.97368 -0.0310452 4.76244 0.0298307L0.757316 1.20171C0.553659 1.26133 0.371956 1.40672 0.241863 1.61415C0.11177 1.82157 0.0409687 2.07878 0.0410156 2.3438C0.0410156 14.8682 8.04741 25 17.91 25C18.1191 25.0002 18.3221 24.9105 18.4857 24.7455C18.6494 24.5806 18.7641 24.3501 18.8112 24.0918L19.7354 19.0137C19.7831 18.7446 19.7554 18.4628 19.6569 18.2168C19.5584 17.9708 19.3954 17.7761 19.1959 17.6661Z" fill="white"/>
</g>
<defs>
<clipPath id="clip0_89_648">
<rect width="19.7175" height="25" fill="white" transform="translate(0.0410156)"/>
</clipPath>
</defs>
</svg>
