<svg width="25" height="25" viewBox="0 0 25 25" fill="none" xmlns="http://www.w3.org/2000/svg">
<g clip-path="url(#clip0_89_626)">
<path d="M11.533 12.5391C11.533 12.0947 11.8533 11.6748 12.3242 11.6748C12.7562 11.6748 13.1688 11.9873 13.1688 12.4609C13.1688 12.9053 12.8582 13.3252 12.3873 13.3252C11.9504 13.3252 11.533 12.998 11.533 12.5391ZM24.4984 12.5C24.4984 19.1895 19.1103 24.6094 12.4601 24.6094C5.80996 24.6094 0.421875 19.1895 0.421875 12.5C0.421875 5.81055 5.80996 0.390625 12.4601 0.390625C19.1103 0.390625 24.4984 5.81055 24.4984 12.5ZM23.2072 12.5C23.2072 6.52832 18.3967 1.68945 12.4601 1.68945C6.52351 1.68945 1.71307 6.52832 1.71307 12.5C1.71307 18.4717 6.52351 23.3105 12.4601 23.3105C18.3967 23.3105 23.2072 18.4717 23.2072 12.5ZM19.6879 17.2168C19.6879 17.3926 20.3189 17.7148 20.4791 17.8125C19.1491 19.8389 17.091 21.2988 14.7561 21.8799L14.5425 20.9766C14.528 20.8545 14.4503 20.8398 14.3387 20.8398C14.2464 20.8398 14.193 20.9766 14.2027 21.0449L14.4163 21.9629C13.7707 22.0996 13.1154 22.168 12.4553 22.168C10.6932 22.168 8.96029 21.6699 7.45551 20.7471C7.53803 20.6104 8.04771 19.8682 8.04771 19.7607C8.04771 19.668 7.96519 19.585 7.87296 19.585C7.68365 19.585 7.28076 20.3955 7.15941 20.5566C5.13038 19.2041 3.66443 17.1094 3.10135 14.7168L4.02849 14.5117C4.13528 14.4824 4.16441 14.4043 4.16441 14.3066C4.16441 14.2139 4.02849 14.1602 3.95083 14.1699L3.0431 14.3799C2.92175 13.7598 2.85379 13.1348 2.85379 12.5C2.85379 10.6885 3.36348 8.90625 4.31974 7.37793C4.45566 7.46094 5.10125 7.90527 5.20805 7.90527C5.30027 7.90527 5.38279 7.83691 5.38279 7.74414C5.38279 7.55371 4.66924 7.19238 4.50905 7.08008C5.87792 5.06836 7.96034 3.61816 10.3243 3.08105L10.5282 3.98438C10.5573 4.0918 10.635 4.12109 10.732 4.12109C10.8291 4.12109 10.8777 3.98438 10.868 3.90625L10.6641 3.0127C11.2563 2.90527 11.8582 2.83691 12.465 2.83691C14.2659 2.83691 16.023 3.34961 17.5569 4.31152C17.4647 4.44824 17.0327 5.08301 17.0327 5.19043C17.0327 5.2832 17.1007 5.36621 17.1929 5.36621C17.3822 5.36621 17.7414 4.66309 17.8385 4.50195C19.8287 5.85449 21.2509 7.91992 21.8043 10.2734L21.0519 10.4346C20.9306 10.4639 20.916 10.542 20.916 10.6494C20.916 10.7422 21.0519 10.7959 21.1199 10.7861L21.8868 10.6104C22.0082 11.2305 22.0761 11.8652 22.0761 12.5C22.0761 14.2725 21.5907 16.0156 20.6782 17.5146C20.5422 17.4463 19.9792 17.041 19.8724 17.041C19.7704 17.041 19.6879 17.124 19.6879 17.2168ZM18.0763 5.39062C17.4453 5.98633 11.5621 11.4307 11.3971 11.7139L6.70797 19.5508C7.32445 18.9697 13.2222 13.4961 13.3727 13.2373L18.0763 5.39062Z" fill="white"/>
</g>
<defs>
<clipPath id="clip0_89_626">
<rect width="24.8531" height="25" fill="white" transform="translate(0.0332031)"/>
</clipPath>
</defs>
</svg>
