<svg width="26" height="25" viewBox="0 0 26 25" fill="none" xmlns="http://www.w3.org/2000/svg">
<g clip-path="url(#clip0_34_522)">
<path d="M12.0847 12.5391C12.0847 12.0947 12.4073 11.6748 12.8815 11.6748C13.3165 11.6748 13.7319 11.9873 13.7319 12.4609C13.7319 12.9053 13.4191 13.3252 12.945 13.3252C12.5051 13.3252 12.0847 12.998 12.0847 12.5391ZM25.1402 12.5C25.1402 19.1895 19.7147 24.6094 13.0183 24.6094C6.32198 24.6094 0.896484 19.1895 0.896484 12.5C0.896484 5.81055 6.32198 0.390625 13.0183 0.390625C19.7147 0.390625 25.1402 5.81055 25.1402 12.5ZM23.84 12.5C23.84 6.52832 18.9961 1.68945 13.0183 1.68945C7.0405 1.68945 2.19665 6.52832 2.19665 12.5C2.19665 18.4717 7.0405 23.3105 13.0183 23.3105C18.9961 23.3105 23.84 18.4717 23.84 12.5ZM20.2963 17.2168C20.2963 17.3926 20.9317 17.7148 21.093 17.8125C19.7538 19.8389 17.6813 21.2988 15.3303 21.8799L15.1152 20.9766C15.1005 20.8545 15.0223 20.8398 14.9099 20.8398C14.817 20.8398 14.7633 20.9766 14.7731 21.0449L14.9881 21.9629C14.338 22.0996 13.6782 22.168 13.0134 22.168C11.2391 22.168 9.49419 21.6699 7.97896 20.7471C8.06205 20.6104 8.57528 19.8682 8.57528 19.7607C8.57528 19.668 8.49218 19.585 8.39932 19.585C8.20869 19.585 7.803 20.3955 7.6808 20.5566C5.63769 19.2041 4.16156 17.1094 3.59457 14.7168L4.52815 14.5117C4.63568 14.4824 4.66501 14.4043 4.66501 14.3066C4.66501 14.2139 4.52815 14.1602 4.44994 14.1699L3.53592 14.3799C3.41372 13.7598 3.34529 13.1348 3.34529 12.5C3.34529 10.6885 3.85851 8.90625 4.82142 7.37793C4.95828 7.46094 5.60836 7.90527 5.71589 7.90527C5.80876 7.90527 5.89185 7.83691 5.89185 7.74414C5.89185 7.55371 5.17334 7.19238 5.01204 7.08008C6.39041 5.06836 8.4873 3.61816 10.8677 3.08105L11.073 3.98438C11.1023 4.0918 11.1805 4.12109 11.2783 4.12109C11.376 4.12109 11.4249 3.98438 11.4151 3.90625L11.2098 3.0127C11.8061 2.90527 12.4122 2.83691 13.0232 2.83691C14.8366 2.83691 16.606 3.34961 18.1506 4.31152C18.0577 4.44824 17.6227 5.08301 17.6227 5.19043C17.6227 5.2832 17.6911 5.36621 17.784 5.36621C17.9746 5.36621 18.3363 4.66309 18.434 4.50195C20.4381 5.85449 21.8702 7.91992 22.4274 10.2734L21.6698 10.4346C21.5476 10.4639 21.5329 10.542 21.5329 10.6494C21.5329 10.7422 21.6698 10.7959 21.7382 10.7861L22.5105 10.6104C22.6327 11.2305 22.7011 11.8652 22.7011 12.5C22.7011 14.2725 22.2123 16.0156 21.2934 17.5146C21.1566 17.4463 20.5896 17.041 20.4821 17.041C20.3794 17.041 20.2963 17.124 20.2963 17.2168ZM18.6736 5.39062C18.0381 5.98633 12.1141 11.4307 11.9479 11.7139L7.22623 19.5508C7.84699 18.9697 13.7857 13.4961 13.9372 13.2373L18.6736 5.39062Z" fill="white"/>
</g>
<defs>
<clipPath id="clip0_34_522">
<rect width="25.0257" height="25" fill="white" transform="translate(0.505859)"/>
</clipPath>
</defs>
</svg>
