<svg width="26" height="25" viewBox="0 0 26 25" fill="none" xmlns="http://www.w3.org/2000/svg">
<g clip-path="url(#clip0_89_526)">
<path d="M12.008 12.5391C12.008 12.0947 12.3298 11.6748 12.8027 11.6748C13.2366 11.6748 13.651 11.9873 13.651 12.4609C13.651 12.9053 13.339 13.3252 12.8661 13.3252C12.4273 13.3252 12.008 12.998 12.008 12.5391ZM25.0298 12.5C25.0298 19.1895 19.6183 24.6094 12.9392 24.6094C6.26014 24.6094 0.848633 19.1895 0.848633 12.5C0.848633 5.81055 6.26014 0.390625 12.9392 0.390625C19.6183 0.390625 25.0298 5.81055 25.0298 12.5ZM23.733 12.5C23.733 6.52832 18.9016 1.68945 12.9392 1.68945C6.9768 1.68945 2.14544 6.52832 2.14544 12.5C2.14544 18.4717 6.9768 23.3105 12.9392 23.3105C18.9016 23.3105 23.733 18.4717 23.733 12.5ZM20.1984 17.2168C20.1984 17.3926 20.8322 17.7148 20.9931 17.8125C19.6573 19.8389 17.5902 21.2988 15.2452 21.8799L15.0307 20.9766C15.0161 20.8545 14.938 20.8398 14.8259 20.8398C14.7333 20.8398 14.6797 20.9766 14.6894 21.0449L14.9039 21.9629C14.2555 22.0996 13.5974 22.168 12.9343 22.168C11.1646 22.168 9.42416 21.6699 7.91284 20.7471C7.99572 20.6104 8.50762 19.8682 8.50762 19.7607C8.50762 19.668 8.42474 19.585 8.33211 19.585C8.14198 19.585 7.73733 20.3955 7.61545 20.5566C5.57761 19.2041 4.10529 17.1094 3.53976 14.7168L4.47093 14.5117C4.57818 14.4824 4.60743 14.4043 4.60743 14.3066C4.60743 14.2139 4.47093 14.1602 4.39292 14.1699L3.48126 14.3799C3.35938 13.7598 3.29112 13.1348 3.29112 12.5C3.29112 10.6885 3.80302 8.90625 4.76344 7.37793C4.89995 7.46094 5.54835 7.90527 5.65561 7.90527C5.74824 7.90527 5.83112 7.83691 5.83112 7.74414C5.83112 7.55371 5.11446 7.19238 4.95358 7.08008C6.32839 5.06836 8.41986 3.61816 10.7941 3.08105L10.9989 3.98438C11.0281 4.0918 11.1061 4.12109 11.2036 4.12109C11.3011 4.12109 11.3499 3.98438 11.3401 3.90625L11.1354 3.0127C11.7301 2.90527 12.3347 2.83691 12.9441 2.83691C14.7528 2.83691 16.5176 3.34961 18.0582 4.31152C17.9656 4.44824 17.5317 5.08301 17.5317 5.19043C17.5317 5.2832 17.5999 5.36621 17.6926 5.36621C17.8827 5.36621 18.2435 4.66309 18.341 4.50195C20.3398 5.85449 21.7682 7.91992 22.324 10.2734L21.5684 10.4346C21.4465 10.4639 21.4319 10.542 21.4319 10.6494C21.4319 10.7422 21.5684 10.7959 21.6366 10.7861L22.4069 10.6104C22.5288 11.2305 22.597 11.8652 22.597 12.5C22.597 14.2725 22.1095 16.0156 21.193 17.5146C21.0565 17.4463 20.4909 17.041 20.3837 17.041C20.2813 17.041 20.1984 17.124 20.1984 17.2168ZM18.5798 5.39062C17.9461 5.98633 12.0373 11.4307 11.8715 11.7139L7.16206 19.5508C7.78121 18.9697 13.7046 13.4961 13.8557 13.2373L18.5798 5.39062Z" fill="white"/>
</g>
<defs>
<clipPath id="clip0_89_526">
<rect width="24.9612" height="25" fill="white" transform="translate(0.458984)"/>
</clipPath>
</defs>
</svg>
