<svg width="39" height="39" viewBox="0 0 39 39" fill="none" xmlns="http://www.w3.org/2000/svg">
<path d="M36 36L25 25M3 15.8333C3 17.5186 3.33194 19.1874 3.97688 20.7444C4.62181 22.3015 5.56711 23.7162 6.7588 24.9079C7.95048 26.0996 9.36522 27.0449 10.9222 27.6898C12.4792 28.3347 14.148 28.6667 15.8333 28.6667C17.5186 28.6667 19.1874 28.3347 20.7444 27.6898C22.3015 27.0449 23.7162 26.0996 24.9079 24.9079C26.0996 23.7162 27.0449 22.3015 27.6898 20.7444C28.3347 19.1874 28.6667 17.5186 28.6667 15.8333C28.6667 14.148 28.3347 12.4792 27.6898 10.9222C27.0449 9.36522 26.0996 7.95048 24.9079 6.7588C23.7162 5.56711 22.3015 4.62181 20.7444 3.97688C19.1874 3.33194 17.5186 3 15.8333 3C14.148 3 12.4792 3.33194 10.9222 3.97688C9.36522 4.62181 7.95048 5.56711 6.7588 6.7588C5.56711 7.95048 4.62181 9.36522 3.97688 10.9222C3.33194 12.4792 3 14.148 3 15.8333Z" stroke="white" stroke-opacity="0.9" stroke-width="5" stroke-linecap="round" stroke-linejoin="round"/>
</svg>
